<?xml version="1.0" encoding="UTF-8"?>
<svg version="1.1" xmlns="http://www.w3.org/2000/svg" width="153" height="212">
<path d="M0 0 C0.99 0.66 1.98 1.32 3 2 C3.34057617 4.43017578 3.34057617 4.43017578 3.29296875 7.4453125 C3.28330078 8.52167969 3.27363281 9.59804688 3.26367188 10.70703125 C3.23853516 11.83496094 3.21339844 12.96289062 3.1875 14.125 C3.16719727 15.82849609 3.16719727 15.82849609 3.14648438 17.56640625 C3.11104319 20.37807387 3.06163517 23.18880417 3 26 C2.34 26 1.68 26 1 26 C1 27.65 1 29.3 1 31 C0.34 31 -0.32 31 -1 31 C-1.06316406 31.98226562 -1.12632813 32.96453125 -1.19140625 33.9765625 C-1.88353435 38.80564606 -4.30040084 42.35832443 -6.9375 46.375 C-7.39318359 47.09816406 -7.84886719 47.82132813 -8.31835938 48.56640625 C-11.70533558 53.85266779 -11.70533558 53.85266779 -14 55 C-14.4021875 56.0828125 -14.4021875 56.0828125 -14.8125 57.1875 C-16.49676749 61.17655459 -19.03111339 65.01555669 -23 67 C-23.495 68.485 -23.495 68.485 -24 70 C-25.485 70.495 -25.485 70.495 -27 71 C-27.35729936 72.32711192 -27.68325425 73.66262906 -28 75 C-28.9694786 76.71274552 -29.94137197 78.42441186 -30.9453125 80.1171875 C-32.55043607 82.98263031 -33.75957363 85.96095539 -35 89 C-35.66 89 -36.32 89 -37 89 C-37 90.65 -37 92.3 -37 94 C-37.66 94 -38.32 94 -39 94 C-39 95.65 -39 97.3 -39 99 C-39.66 99 -40.32 99 -41 99 C-41.33 101.64 -41.66 104.28 -42 107 C-42.66 107 -43.32 107 -44 107 C-44.08636719 107.63164063 -44.17273438 108.26328125 -44.26171875 108.9140625 C-45.53942151 117.04916081 -48.06844848 124.33544736 -51 132 C-50.31035156 131.54109375 -49.62070312 131.0821875 -48.91015625 130.609375 C-43.64034213 127.16845384 -38.57779193 124.14678272 -32.6796875 121.921875 C-30.63895109 121.04937138 -30.63895109 121.04937138 -30 118 C-29.24976562 117.90203125 -28.49953125 117.8040625 -27.7265625 117.703125 C-17.39583328 116.25911142 -17.39583328 116.25911142 -8 112 C-7.30229453 110.34608667 -6.63295295 108.67975974 -6 107 C-5.01 106.67 -4.02 106.34 -3 106 C-3 104.68 -3 103.36 -3 102 C-1.68 101.67 -0.36 101.34 1 101 C1.0928125 99.7315625 1.0928125 99.7315625 1.1875 98.4375 C2.20135364 94.14811923 3.52324997 90.83715922 7 88 C11.05556501 87.10366136 14.80519014 87.7344867 18.8125 88.625 C21.52977662 89.09081885 22.70843405 88.44283782 25 87 C25.33 87.99 25.66 88.98 26 90 C28.09719872 91.02281518 28.09719872 91.02281518 30.5625 91.6875 C31.38878906 91.93886719 32.21507812 92.19023438 33.06640625 92.44921875 C33.70449219 92.63097656 34.34257812 92.81273438 35 93 C34.3125 95.875 34.3125 95.875 33 99 C31.33667904 99.67497082 29.66918469 100.3396632 28 101 C25.63310395 102.58693256 23.41621119 104.35097571 21.1875 106.125 C20.59001953 106.59292969 19.99253906 107.06085938 19.37695312 107.54296875 C17.91383208 108.69005565 16.45633703 109.84431234 15 111 C15.63035156 111.11472656 16.26070313 111.22945313 16.91015625 111.34765625 C19 112 19 112 20.4375 114.4375 C21.76330266 117.20430156 21.76330266 117.20430156 24.5 117.9375 C27 119 27 119 28.8125 121.75 C30.03316827 125.09077631 30.25163055 127.4771723 30 131 C30.66 131 31.32 131 32 131 C32.51761267 139.91444048 32.01710978 147.87899102 28 156 C26.69026002 157.3565164 25.35932204 158.6931721 24 160 C23.67 160.99 23.34 161.98 23 163 C21.68259689 163.69761828 20.345905 164.35909286 19 165 C17.48630848 166.25102949 16.00873741 167.54656703 14.5625 168.875 C11.45166585 171.69978043 8.29123171 174.38637482 5 177 C4.54625 177.556875 4.0925 178.11375 3.625 178.6875 C1.04369233 180.77240235 -1.77913685 180.69614499 -5 181 C-5 181.66 -5 182.32 -5 183 C-6.175625 183.12375 -7.35125 183.2475 -8.5625 183.375 C-12.54120426 183.86435935 -16.17766559 184.8055205 -20 186 C-20 186.66 -20 187.32 -20 188 C-21.216875 187.95875 -22.43375 187.9175 -23.6875 187.875 C-29.88783709 187.85519062 -35.906352 188.94514903 -42 190 C-42 190.66 -42 191.32 -42 192 C-46.73225528 192.02481819 -51.46447221 192.04291583 -56.19677734 192.05493164 C-57.80485698 192.05994375 -59.4129321 192.06675519 -61.02099609 192.07543945 C-63.33952961 192.08764226 -65.65800259 192.09325964 -67.9765625 192.09765625 C-68.68930328 192.10281754 -69.40204407 192.10797882 -70.13638306 192.11329651 C-74.19856429 192.11374755 -78.01488106 191.78775607 -82 191 C-82 190.67 -82 190.34 -82 190 C-79.36 190 -76.72 190 -74 190 C-76.64 189.67 -79.28 189.34 -82 189 C-83.53166168 184.91556885 -82.63081652 181.20544343 -82 177 C-81.34 177 -80.68 177 -80 177 C-79.32389577 175.10751181 -78.65949561 173.2108398 -78 171.3125 C-77.62875 170.25675781 -77.2575 169.20101562 -76.875 168.11328125 C-76.0608143 165.21637944 -75.82290204 162.98299377 -76 160 C-75.34 160 -74.68 160 -74 160 C-73.67 157.03 -73.34 154.06 -73 151 C-72.34 151 -71.68 151 -71 151 C-70.67 148.36 -70.34 145.72 -70 143 C-69.34 143 -68.68 143 -68 143 C-65.29466594 136.26812223 -63.47567125 130.25398658 -63 123 C-62.34 123 -61.68 123 -61 123 C-60.32320342 121.274773 -59.65898 119.54461061 -59 117.8125 C-58.62875 116.84957031 -58.2575 115.88664062 -57.875 114.89453125 C-57.02363228 112.07817642 -56.82927353 109.91835561 -57 107 C-56.34 107 -55.68 107 -55 107 C-54.34 104.36 -53.68 101.72 -53 99 C-57.21775732 100.35525536 -61.29421322 101.90200114 -65.375 103.625 C-66.43460938 104.07101563 -67.49421875 104.51703125 -68.5859375 104.9765625 C-69.78089844 105.48316406 -69.78089844 105.48316406 -71 106 C-71 106.66 -71 107.32 -71 108 C-72.8253125 107.9690625 -72.8253125 107.9690625 -74.6875 107.9375 C-77.94196171 107.93179042 -80.81042955 108.34572914 -84 109 C-86.33301986 109.03824623 -88.66711508 109.04574284 -91 109 C-91 105.37 -91 101.74 -91 98 C-92.485 98.495 -92.485 98.495 -94 99 C-94.02685938 96.85423363 -94.04633088 94.70837355 -94.0625 92.5625 C-94.07410156 91.36753906 -94.08570312 90.17257813 -94.09765625 88.94140625 C-94 86 -94 86 -93 85 C-92.92674832 82.13732433 -92.90761795 79.299281 -92.9375 76.4375 C-92.94201172 75.63119141 -92.94652344 74.82488281 -92.95117188 73.99414062 C-92.96299482 71.99606244 -92.98093086 69.99802217 -93 68 C-89.7 68 -86.4 68 -83 68 C-83 68.66 -83 69.32 -83 70 C-72.44009927 70.30085127 -72.44009927 70.30085127 -62 69 C-61.67 68.34 -61.34 67.68 -61 67 C-59.9275 67.12375 -58.855 67.2475 -57.75 67.375 C-50.79943029 67.39982346 -43.78304985 63.51618206 -38.71875 58.9375 C-37.03496873 57.03941929 -35.99552172 55.32288401 -35 53 C-34.34 53 -33.68 53 -33 53 C-32.938125 52.21625 -32.87625 51.4325 -32.8125 50.625 C-31.6967665 45.64711207 -29.39693773 41.47546306 -27 37 C-26.34 37 -25.68 37 -25 37 C-25 35.35 -25 33.7 -25 32 C-24.34 32 -23.68 32 -23 32 C-22.67 29.69 -22.34 27.38 -22 25 C-21.34 25 -20.68 25 -20 25 C-19.71125 23.96875 -19.4225 22.9375 -19.125 21.875 C-18.17691202 18.54992003 -17.11743406 15.27248547 -16 12 C-15.34 12 -14.68 12 -14 12 C-13.938125 11.113125 -13.87625 10.22625 -13.8125 9.3125 C-12.81004136 5.22555325 -11.15975486 3.69735171 -8 1 C-5.22899606 -0.38550197 -3.0665294 -0.1877467 0 0 Z M-9 15 C-8.67 15.99 -8.34 16.98 -8 18 C-8 17.01 -8 16.02 -8 15 C-8.33 15 -8.66 15 -9 15 Z M-9 19 C-8 21 -8 21 -8 21 Z M-10 22 C-9 24 -9 24 -9 24 Z M-13 24 C-12 26 -12 26 -12 26 Z M-14 26 C-13 28 -13 28 -13 28 Z M-22 28 C-21 30 -21 30 -21 30 Z M-15 28 C-14 30 -14 30 -14 30 Z M-35 82 C-34 84 -34 84 -34 84 Z M-36 84 C-35 86 -35 86 -35 86 Z M-93 95 C-92 97 -92 97 -92 97 Z M-52 96 C-52.33 96.66 -52.66 97.32 -53 98 C-52.34 98 -51.68 98 -51 98 C-51.33 97.34 -51.66 96.68 -52 96 Z M-47 113 C-46 115 -46 115 -46 115 Z M-48 115 C-47 117 -47 117 -47 117 Z M-49 118 C-48 120 -48 120 -48 120 Z M-3.8125 124.5625 C-5.01577879 125.49315328 -6.22286086 126.41890877 -7.43359375 127.33984375 C-8.02769043 127.79472168 -8.62178711 128.24959961 -9.23388672 128.71826172 C-13.21248155 131.60568539 -17.61630954 133.79920846 -22 136 C-22 136.66 -22 137.32 -22 138 C-23.175625 138.12375 -24.35125 138.2475 -25.5625 138.375 C-28.32170673 138.70668165 -30.52221181 139.1740706 -33.1875 140.0625 C-40.91323983 141.96227209 -49.20710972 141.44984005 -57 140 C-57.28875 141.093125 -57.5775 142.18625 -57.875 143.3125 C-59 147 -59 147 -61 150 C-61.24055468 152.05709596 -61.24055468 152.05709596 -61.125 154.1875 C-61.08375 155.445625 -61.0425 156.70375 -61 158 C-62.485 158.495 -62.485 158.495 -64 159 C-65.04655159 162.08151302 -65.81284089 165.13438911 -66.5 168.3125 C-67 170 -67 170 -69 172 C-68.67801034 175.09926819 -68.67801034 175.09926819 -68 178 C-67.2575 178.144375 -66.515 178.28875 -65.75 178.4375 C-63.47972261 178.90187492 -61.24240521 179.41863569 -59 180 C-59.99 180.495 -59.99 180.495 -61 181 C-60.01 181 -59.02 181 -58 181 C-58 180.34 -58 179.68 -58 179 C-56.02 179.33 -54.04 179.66 -52 180 C-52 180.33 -52 180.66 -52 181 C-50.18706911 180.85962479 -48.3746557 180.71255111 -46.5625 180.5625 C-45.55316406 180.48128906 -44.54382813 180.40007812 -43.50390625 180.31640625 C-41.06359221 180.26788532 -41.06359221 180.26788532 -40 179 C-38.04732314 178.76832647 -36.09449431 178.53779792 -34.140625 178.31640625 C-31.02213964 177.85546225 -27.29606745 177.29606745 -25 175 C-23.71254964 174.61077082 -22.41980403 174.23901964 -21.125 173.875 C-12.13278685 170.93001445 -3.4300457 164.94582477 3 158 C3.33 157.01 3.66 156.02 4 155 C5.31266518 153.64631404 6.64567325 152.31200404 8 151 C8.33 150.34 8.66 149.68 9 149 C9.495 148.566875 9.99 148.13375 10.5 147.6875 C12.40482865 145.54456777 12.50071199 143.78174747 13 141 C13.66 140.34 14.32 139.68 15 139 C15.18929897 132.97849006 14.97386616 125.74300155 11 121 C4.4596527 119.35454265 1.40218162 120.24383252 -3.8125 124.5625 Z M-50 121 C-49 123 -49 123 -49 123 Z M-51 123 C-50 125 -50 125 -50 125 Z M-25 125 C-24.34 125.66 -23.68 126.32 -23 127 C-22.67 126.34 -22.34 125.68 -22 125 C-22.99 125 -23.98 125 -25 125 Z M-63 126 C-62 128 -62 128 -62 128 Z M-52 126 C-51 128 -51 128 -51 128 Z M-34.125 128.8125 C-35.20007813 129.33457031 -36.27515625 129.85664063 -37.3828125 130.39453125 C-40.28743132 131.79011847 -40.28743132 131.79011847 -41 135 C-35.3413064 134.56471588 -30.5534845 132.31685398 -26 129 C-25.67 128.01 -25.34 127.02 -25 126 C-28.72849661 126 -30.79228367 127.16220312 -34.125 128.8125 Z M28 126 C29 128 29 128 29 128 Z M15 127 C15 129.64 15 132.28 15 135 C15.33 135 15.66 135 16 135 C16 132.36 16 129.72 16 127 C15.67 127 15.34 127 15 127 Z M-53 129 C-52 131 -52 131 -52 131 Z M-54 132 C-53 134 -53 134 -53 134 Z M-55 134 C-54 136 -54 136 -54 136 Z M30 134 C30 137.3 30 140.6 30 144 C30.33 144 30.66 144 31 144 C31 140.7 31 137.4 31 134 C30.67 134 30.34 134 30 134 Z M-56 137 C-55 139 -55 139 -55 139 Z M-54 137 C-53 139 -53 139 -53 139 Z M29 145 C30 148 30 148 30 148 Z M28 149 C29 151 29 151 29 151 Z M-67 167 C-66 169 -66 169 -66 169 Z M-71 180 C-71 180.33 -71 180.66 -71 181 C-68.03 181 -65.06 181 -62 181 C-62 180.67 -62 180.34 -62 180 C-64.97 180 -67.94 180 -71 180 Z M-57 180 C-53 181 -53 181 -53 181 Z " fill="#9F5C61" transform="translate(110,9)"/>
<path d="M0 0 C0.66 0 1.32 0 2 0 C1.67 0.99 1.34 1.98 1 3 C-1.72265625 4.16796875 -1.72265625 4.16796875 -5.0625 5.1875 C-6.16722656 5.53167969 -7.27195312 5.87585938 -8.41015625 6.23046875 C-9.26480469 6.48441406 -10.11945313 6.73835937 -11 7 C-11 7.66 -11 8.32 -11 9 C-12.216875 8.95875 -13.43375 8.9175 -14.6875 8.875 C-20.88783709 8.85519062 -26.906352 9.94514903 -33 11 C-33 11.66 -33 12.32 -33 13 C-37.73225528 13.02481819 -42.46447221 13.04291583 -47.19677734 13.05493164 C-48.80485698 13.05994375 -50.4129321 13.06675519 -52.02099609 13.07543945 C-54.33952961 13.08764226 -56.65800259 13.09325964 -58.9765625 13.09765625 C-60.04567368 13.10539818 -60.04567368 13.10539818 -61.13638306 13.11329651 C-65.19856429 13.11374755 -69.01488106 12.78775607 -73 12 C-73 11.67 -73 11.34 -73 11 C-70.36 11 -67.72 11 -65 11 C-67.64 10.67 -70.28 10.34 -73 10 C-73.33 8.68 -73.66 7.36 -74 6 C-73.34 5.67 -72.68 5.34 -72 5 C-72 5.99 -72 6.98 -72 8 C-35.93685243 8.93226305 -35.93685243 8.93226305 -1 1 C-0.67 0.67 -0.34 0.34 0 0 Z " fill="#A77A87" transform="translate(101,188)"/>
<path d="M0 0 C1.953125 0.46875 1.953125 0.46875 3.953125 3.46875 C3.39367187 3.35273438 2.83421875 3.23671875 2.2578125 3.1171875 C-5.89309514 2.19988278 -10.52565371 6.2006918 -16.62109375 10.921875 C-20.24092213 13.70745002 -24.06098192 15.63467189 -28.25390625 17.43359375 C-30.39419587 18.40492168 -30.39419587 18.40492168 -31.046875 21.46875 C-32.2225 21.5925 -33.398125 21.71625 -34.609375 21.84375 C-37.36858173 22.17543165 -39.56908681 22.6428206 -42.234375 23.53125 C-47.75351743 24.88841617 -53.39758181 25.17872874 -59.046875 24.46875 C-60.9375 23.13671875 -60.9375 23.13671875 -62.046875 21.46875 C-62.046875 20.47875 -62.046875 19.48875 -62.046875 18.46875 C-61.386875 18.46875 -60.726875 18.46875 -60.046875 18.46875 C-60.046875 19.45875 -60.046875 20.44875 -60.046875 21.46875 C-42.40214774 22.00615286 -24.64786454 16.10522309 -11.35546875 3.91796875 C-10.88238281 3.46035156 -10.40929687 3.00273437 -9.921875 2.53125 C-6.39935892 0.0042276 -4.22670579 -0.0575062 0 0 Z " fill="#AC7A7F" transform="translate(119.046875,126.53125)"/>
<path d="M0 0 C0.66 0.33 1.32 0.66 2 1 C1.08476562 1.77085938 0.16953125 2.54171875 -0.7734375 3.3359375 C-1.97399844 4.3489108 -3.17451708 5.36193424 -4.375 6.375 C-5.27992188 7.13683594 -5.27992188 7.13683594 -6.203125 7.9140625 C-6.78320312 8.40390625 -7.36328125 8.89375 -7.9609375 9.3984375 C-8.49509277 9.84880371 -9.02924805 10.29916992 -9.57958984 10.76318359 C-10.76341678 11.79399612 -11.89004039 12.89004039 -13 14 C-12.21625 14.0825 -11.4325 14.165 -10.625 14.25 C-9.75875 14.4975 -8.8925 14.745 -8 15 C-7.3162955 16.32467746 -6.65035814 17.65863633 -6 19 C-4.7934375 19.433125 -4.7934375 19.433125 -3.5625 19.875 C-1 21 -1 21 0.8125 23.75 C2.03316827 27.09077631 2.25163055 29.4771723 2 33 C2.66 33 3.32 33 4 33 C4.05418326 35.08304538 4.09287551 37.16649768 4.125 39.25 C4.14820313 40.41015625 4.17140625 41.5703125 4.1953125 42.765625 C4.0103949 45.82786046 3.60823023 47.44202751 2 50 C0.96844274 45.6734686 -0.00808103 41.43882466 -0.375 37 C-1.07480826 30.95510452 -3.52255786 25.83681996 -7.3125 21.125 C-10.45797176 18.6378828 -13.254411 17.39541551 -17 16 C-15.40269287 11.5758796 -12.02321957 9.19756591 -8.5 6.3125 C-7.90574219 5.81427734 -7.31148437 5.31605469 -6.69921875 4.80273438 C-2.32007334 1.16003667 -2.32007334 1.16003667 0 0 Z M0 28 C1 30 1 30 1 30 Z M2 36 C2 39.3 2 42.6 2 46 C2.33 46 2.66 46 3 46 C3 42.7 3 39.4 3 36 C2.67 36 2.34 36 2 36 Z " fill="#B15F61" transform="translate(138,107)"/>
<path d="M0 0 C0.33 0.99 0.66 1.98 1 3 C-18.74433574 17.90782698 -18.74433574 17.90782698 -31 17 C-29.25 13.125 -29.25 13.125 -27 12 C-27 12.66 -27 13.32 -27 14 C-20.24575263 12.82068697 -14.67064885 10.94920188 -9 7 C-8.67 6.34 -8.34 5.68 -8 5 C-8.97582031 5.44472656 -9.95164062 5.88945312 -10.95703125 6.34765625 C-12.24196157 6.91977851 -13.5271304 7.49136533 -14.8125 8.0625 C-15.45509766 8.35705078 -16.09769531 8.65160156 -16.75976562 8.95507812 C-21.66015625 11.11328125 -21.66015625 11.11328125 -25 10 C-16.83557223 5.64961148 -9.12326082 1.95498446 0 0 Z M-8 4 C-7.34 4.66 -6.68 5.32 -6 6 C-5.67 5.34 -5.34 4.68 -5 4 C-5.99 4 -6.98 4 -8 4 Z " fill="#AE8083" transform="translate(93,130)"/>
<path d="M0 0 C0.66 0.33 1.32 0.66 2 1 C-1.06295228 5.56410215 -3.51213427 6.88007266 -8.75 8.375 C-19.86323036 11.7611697 -30.87692024 15.91152882 -40.30078125 22.8359375 C-42 24 -42 24 -45 25 C-43.51235217 20.71941333 -40.41688059 19.05219666 -36.6875 16.875 C-36.11837891 16.52824219 -35.54925781 16.18148437 -34.96289062 15.82421875 C-32.40429927 14.29082646 -29.94607098 12.98008094 -27.14453125 11.9453125 C-26.43683594 11.63335937 -25.72914062 11.32140625 -25 11 C-24.67 10.01 -24.34 9.02 -24 8 C-23.24976562 7.90203125 -22.49953125 7.8040625 -21.7265625 7.703125 C-9.91742708 6.07038694 -9.91742708 6.07038694 0 0 Z " fill="#AF767A" transform="translate(104,119)"/>
<path d="M0 0 C3.3 0 6.6 0 10 0 C10 0.66 10 1.32 10 2 C11.18078125 1.97679688 12.3615625 1.95359375 13.578125 1.9296875 C15.13541033 1.91092503 16.69270252 1.89272534 18.25 1.875 C19.02730469 1.85824219 19.80460937 1.84148437 20.60546875 1.82421875 C27.72431144 1.76337394 27.72431144 1.76337394 31 4 C27.98448936 4.87359586 25.29144706 5.12856919 22.15625 5.1328125 C21.23972656 5.13410156 20.32320312 5.13539062 19.37890625 5.13671875 C18.42886719 5.13285156 17.47882812 5.12898438 16.5 5.125 C15.07494141 5.13080078 15.07494141 5.13080078 13.62109375 5.13671875 C12.70457031 5.13542969 11.78804687 5.13414063 10.84375 5.1328125 C10.01037109 5.13168457 9.17699219 5.13055664 8.31835938 5.12939453 C6 5 6 5 2 4 C2 7.3 2 10.6 2 14 C1.34 14 0.68 14 0 14 C0 9.38 0 4.76 0 0 Z " fill="#AC6C6F" transform="translate(17,77)"/>
<path d="M0 0 C0.66 0 1.32 0 2 0 C2.34897575 5.107736 1.12662689 9.07856346 -0.75 13.75 C-1.15943848 14.80018311 -1.15943848 14.80018311 -1.57714844 15.87158203 C-2.12387395 17.26995005 -2.67488899 18.6666496 -3.23046875 20.06152344 C-3.90756913 21.76716337 -4.5647579 23.48067935 -5.21875 25.1953125 C-7.73578199 31.73578199 -7.73578199 31.73578199 -10 34 C-9.58303734 29.99715846 -8.94459471 26.61430103 -7.4375 22.875 C-6.19984203 19.78686312 -5.68412274 17.36935745 -6 14 C-5.34 14 -4.68 14 -4 14 C-3.34 11.36 -2.68 8.72 -2 6 C-3.299375 6.4640625 -3.299375 6.4640625 -4.625 6.9375 C-7.76150738 7.92491899 -10.75067413 8.53581059 -14 9 C-11.22352778 6.8271087 -8.41468163 5.04658878 -5.3125 3.375 C-2.47141761 1.93997724 -2.47141761 1.93997724 0 0 Z M-1 3 C-1.33 3.66 -1.66 4.32 -2 5 C-1.34 5 -0.68 5 0 5 C-0.33 4.34 -0.66 3.68 -1 3 Z " fill="#A87074" transform="translate(59,102)"/>
<path d="M0 0 C0.33 0 0.66 0 1 0 C2.70994772 7.7558343 3.24923458 15.06603268 3 23 C3.97582031 22.77183594 4.95164062 22.54367188 5.95703125 22.30859375 C7.86548828 21.87740234 7.86548828 21.87740234 9.8125 21.4375 C11.70935547 21.00244141 11.70935547 21.00244141 13.64453125 20.55859375 C17 20 17 20 20 21 C13.38862651 23.98159981 8.34829742 25.14408426 1 25 C1 21.37 1 17.74 1 14 C0.01 14.33 -0.98 14.66 -2 15 C-2.05386629 12.87527424 -2.09273071 10.75016348 -2.125 8.625 C-2.14820313 7.44164063 -2.17140625 6.25828125 -2.1953125 5.0390625 C-2 2 -2 2 0 0 Z M-1 11 C0 13 0 13 0 13 Z " fill="#A6676A" transform="translate(18,93)"/>
<path d="M0 0 C-0.33 1.32 -0.66 2.64 -1 4 C-1.33 3.67 -1.66 3.34 -2 3 C-10.12456347 5.27946217 -17.59898 7.92359169 -25 12 C-24.01 13.485 -24.01 13.485 -23 15 C-25.64 15 -28.28 15 -31 15 C-31 14.01 -31 13.02 -31 12 C-5.92701863 -1.97567288 -5.92701863 -1.97567288 0 0 Z " fill="#9C666A" transform="translate(95,128)"/>
<path d="M0 0 C0.33 0.66 0.66 1.32 1 2 C1.75925781 1.91621094 2.51851562 1.83242187 3.30078125 1.74609375 C4.29464844 1.64425781 5.28851563 1.54242188 6.3125 1.4375 C7.29863281 1.33308594 8.28476562 1.22867188 9.30078125 1.12109375 C12 1 12 1 15 2 C15 1.34 15 0.68 15 0 C16.64574566 -0.02688151 18.29161413 -0.04634123 19.9375 -0.0625 C20.85402344 -0.07410156 21.77054688 -0.08570313 22.71484375 -0.09765625 C25 0 25 0 26 1 C27.66617115 1.04063832 29.33388095 1.042721 31 1 C31.33 1.66 31.66 2.32 32 3 C28.58248347 4.13917218 25.96512063 4.11338481 22.36328125 4.09765625 C21.06455078 4.09443359 19.76582031 4.09121094 18.42773438 4.08789062 C17.05598892 4.07953531 15.68424413 4.07107037 14.3125 4.0625 C12.92903805 4.05748335 11.54557437 4.05292073 10.16210938 4.04882812 C6.77469605 4.03702529 3.38736967 4.02056019 0 4 C0 2.68 0 1.36 0 0 Z M16 1 C20 2 20 2 20 2 Z " fill="#B38285" transform="translate(37,188)"/>
<path d="M0 0 C0.66 0.99 1.32 1.98 2 3 C4.17897492 4.00805555 4.17897492 4.00805555 6.625 4.6875 C7.44226563 4.93886719 8.25953125 5.19023438 9.1015625 5.44921875 C9.72804687 5.63097656 10.35453125 5.81273438 11 6 C10.67 6.99 10.34 7.98 10 9 C9.45214844 8.81824219 8.90429688 8.63648437 8.33984375 8.44921875 C0.66857785 6.01686615 -7.10375912 4.48449329 -15 3 C-15 2.34 -15 1.68 -15 1 C-11.62632115 0.93384943 -8.55054374 0.87487642 -5.25 1.625 C-2.72357379 2.30967334 -2.72357379 2.30967334 0 0 Z " fill="#B6676A" transform="translate(134,96)"/>
<path d="M0 0 C0.66 0.33 1.32 0.66 2 1 C-3.51341763 6.60422686 -9.03368557 10.91933141 -15.9375 14.625 C-16.5879126 14.97949219 -17.2383252 15.33398438 -17.90844727 15.69921875 C-19.56334197 16.55358111 -21.27954942 17.28679503 -23 18 C-23.99 17.67 -24.98 17.34 -26 17 C-23.42000844 15.43693942 -20.83045495 13.90433491 -18.203125 12.421875 C-11.69880457 8.73953486 -5.74980068 4.77698087 0 0 Z " fill="#AC7B7F" transform="translate(111,168)"/>
<path d="M0 0 C-0.33 0.99 -0.66 1.98 -1 3 C-3.72265625 4.16796875 -3.72265625 4.16796875 -7.0625 5.1875 C-8.16722656 5.53167969 -9.27195312 5.87585938 -10.41015625 6.23046875 C-11.26480469 6.48441406 -12.11945313 6.73835937 -13 7 C-13 7.66 -13 8.32 -13 9 C-16.96 8.67 -20.92 8.34 -25 8 C-22.51610685 5.51610685 -20.84288451 5.33229956 -17.4375 4.5625 C-12.76316428 3.46000927 -8.26324453 2.16544447 -3.7421875 0.55078125 C-2 0 -2 0 0 0 Z " fill="#AD7679" transform="translate(103,188)"/>
<path d="M0 0 C0.33 0.99 0.66 1.98 1 3 C19.81 3.495 19.81 3.495 39 4 C39 4.33 39 4.66 39 5 C26.13 5 13.26 5 0 5 C-0.33 3.68 -0.66 2.36 -1 1 C-0.67 0.67 -0.34 0.34 0 0 Z " fill="#B18588" transform="translate(28,193)"/>
<path d="M0 0 C0 3 0 3 -1.3984375 4.6484375 C-8.35837657 10.72806807 -15.60630835 15.38736794 -25 16 C-22.50432644 13.04593742 -19.9682519 12.06845419 -16.375 10.75 C-10.059427 8.23297941 -4.81746618 4.81746618 0 0 Z " fill="#A77074" transform="translate(76,64)"/>
<path d="M0 0 C-0.55985596 0.28721924 -1.11971191 0.57443848 -1.6965332 0.87036133 C-4.23826661 2.17852506 -6.7753869 3.49539941 -9.3125 4.8125 C-10.19357422 5.26431641 -11.07464844 5.71613281 -11.98242188 6.18164062 C-12.82998047 6.62314453 -13.67753906 7.06464844 -14.55078125 7.51953125 C-15.72120972 8.12438354 -15.72120972 8.12438354 -16.9152832 8.74145508 C-19.04694324 9.91433569 -19.04694324 9.91433569 -20.65307617 11.6550293 C-22 13 -22 13 -24 13 C-22.51235217 8.71941333 -19.41688059 7.05219666 -15.6875 4.875 C-15.11837891 4.52824219 -14.54925781 4.18148437 -13.96289062 3.82421875 C-5.09177919 -1.49233713 -5.09177919 -1.49233713 0 0 Z " fill="#B18088" transform="translate(83,131)"/>
<path d="M0 0 C0.33 0.66 0.66 1.32 1 2 C1.66 2 2.32 2 3 2 C3.33 1.34 3.66 0.68 4 0 C3.33583525 3.71390087 2.36693188 7.18786979 1.125 10.75 C0.79757813 11.71421875 0.47015625 12.6784375 0.1328125 13.671875 C-0.42792969 14.82429687 -0.42792969 14.82429687 -1 16 C-1.99 16.33 -2.98 16.66 -4 17 C-5.16110175 13.51669474 -4.77231701 12.48147304 -3.6875 9.0625 C-3.42324219 8.20785156 -3.15898438 7.35320312 -2.88671875 6.47265625 C-2.07301348 4.20360148 -1.12972641 2.12625364 0 0 Z M1 3 C2 5 2 5 2 5 Z M0 6 C1 8 1 8 1 8 Z M-1 8 C0 10 0 10 0 10 Z M-2 11 C-1 13 -1 13 -1 13 Z " fill="#A75659" transform="translate(60,124)"/>
<path d="M0 0 C0.66 0.33 1.32 0.66 2 1 C1.08476562 1.77085938 0.16953125 2.54171875 -0.7734375 3.3359375 C-1.97399844 4.3489108 -3.17451708 5.36193424 -4.375 6.375 C-5.27992188 7.13683594 -5.27992188 7.13683594 -6.203125 7.9140625 C-6.78320312 8.40390625 -7.36328125 8.89375 -7.9609375 9.3984375 C-8.49509277 9.84880371 -9.02924805 10.29916992 -9.57958984 10.76318359 C-10.76341678 11.79399612 -11.89004039 12.89004039 -13 14 C-12.34 14.33 -11.68 14.66 -11 15 C-11 15.66 -11 16.32 -11 17 C-12.98 16.67 -14.96 16.34 -17 16 C-15.40269287 11.5758796 -12.02321957 9.19756591 -8.5 6.3125 C-7.90574219 5.81427734 -7.31148437 5.31605469 -6.69921875 4.80273438 C-2.32007334 1.16003667 -2.32007334 1.16003667 0 0 Z " fill="#AD797D" transform="translate(138,107)"/>
<path d="M0 0 C0.33 0.66 0.66 1.32 1 2 C-0.32219629 4.38174411 -1.68621712 6.61039203 -3.1875 8.875 C-3.78788086 9.81279297 -3.78788086 9.81279297 -4.40039062 10.76953125 C-6.6521145 14.22193123 -8.93819339 17.19862292 -12 20 C-11.75 16.625 -11.75 16.625 -11 13 C-9.0625 11.8125 -9.0625 11.8125 -7 11 C-5.81669817 9.13355094 -5.81669817 9.13355094 -5 7 C-3.68432056 4.10550522 -2.35966387 2.14514897 0 0 Z " fill="#A06C70" transform="translate(101,32)"/>
<path d="M0 0 C0.99 0.33 1.98 0.66 3 1 C2.33333333 3 1.66666667 5 1 7 C1.33 7.99 1.66 8.98 2 10 C4.64 10 7.28 10 10 10 C10 10.66 10 11.32 10 12 C3.565 12.495 3.565 12.495 -3 13 C-2.52060632 8.28596212 -2.03165952 4.33420699 0 0 Z " fill="#A86466" transform="translate(41,177)"/>
<path d="M0 0 C1.35814777 4.0744433 -0.05254238 6.81468116 -1.4375 10.6875 C-1.68048828 11.38939453 -1.92347656 12.09128906 -2.17382812 12.81445312 C-2.7744944 14.54578532 -3.38619719 16.27328137 -4 18 C-4.99 17.34 -5.98 16.68 -7 16 C-6.67 14.02 -6.34 12.04 -6 10 C-5.34 10 -4.68 10 -4 10 C-2.68 6.7 -1.36 3.4 0 0 Z " fill="#AD6A6D" transform="translate(34,176)"/>
<path d="M0 0 C0.33 0.99 0.66 1.98 1 3 C0.34 3.66 -0.32 4.32 -1 5 C-2.11785113 7.11785113 -2.11785113 7.11785113 -3 10 C-3.33 10.66 -3.66 11.32 -4 12 C-4.33 12.99 -4.66 13.98 -5 15 C-6.25 13.0625 -6.25 13.0625 -7 10 C-6.08523724 6.77368104 -4.83919383 3.80810666 -3 1 C-2.01 0.67 -1.02 0.34 0 0 Z " fill="#AB5356" transform="translate(75,93)"/>
<path d="M0 0 C0.66 0 1.32 0 2 0 C2 0.99 2 1.98 2 3 C2.75925781 3.04898438 3.51851562 3.09796875 4.30078125 3.1484375 C5.29464844 3.22320312 6.28851563 3.29796875 7.3125 3.375 C8.79169922 3.47941406 8.79169922 3.47941406 10.30078125 3.5859375 C13 4 13 4 16 6 C13.89646505 6.0810206 11.79204048 6.13919907 9.6875 6.1875 C8.51574219 6.22230469 7.34398438 6.25710937 6.13671875 6.29296875 C3 6 3 6 1.08203125 4.67578125 C0 3 0 3 0 0 Z " fill="#A7787B" transform="translate(57,145)"/>
<path d="M0 0 C1.54794214 3.09588428 0.24648304 5.19893011 -0.75 8.4375 C-1.26820312 10.16806641 -1.26820312 10.16806641 -1.796875 11.93359375 C-2.90548435 14.75910785 -3.67365612 16.13491395 -6 18 C-5.50356293 12.29097373 -4.20216829 4.20216829 0 0 Z " fill="#9E6D70" transform="translate(55,118)"/>
<path d="M0 0 C0.99 0.33 1.98 0.66 3 1 C3.433125 1.9590625 3.433125 1.9590625 3.875 2.9375 C5.39098648 5.71680854 7.05867273 6.07115981 10 7 C9.67 8.32 9.34 9.64 9 11 C5.21181348 9.73727116 3.59629943 8.00624144 1 5 C0.1875 2.1875 0.1875 2.1875 0 0 Z " fill="#BB585B" transform="translate(127,121)"/>
<path d="M0 0 C1.33998047 0.31324219 1.33998047 0.31324219 2.70703125 0.6328125 C3.60808594 0.83648437 4.50914062 1.04015625 5.4375 1.25 C6.46810547 1.50136719 6.46810547 1.50136719 7.51953125 1.7578125 C7.51953125 3.0778125 7.51953125 4.3978125 7.51953125 5.7578125 C3.22953125 4.4378125 -1.06046875 3.1178125 -5.48046875 1.7578125 C-2.48046875 -0.2421875 -2.48046875 -0.2421875 0 0 Z " fill="#AD787B" transform="translate(136.48046875,99.2421875)"/>
<path d="M0 0 C0.79921875 0.11085938 1.5984375 0.22171875 2.421875 0.3359375 C3.32679687 0.47902344 3.32679687 0.47902344 4.25 0.625 C1.47931754 3.39568246 -0.93633742 3.90171917 -4.75 4.625 C-7.1875 3.25 -7.1875 3.25 -8.75 1.625 C-5.5750906 -0.2828584 -3.64414789 -0.5359041 0 0 Z " fill="#B96783" transform="translate(87.75,126.375)"/>
<path d="M0 0 C-0.33 0.66 -0.66 1.32 -1 2 C-5.72780763 3.49713908 -9.14396816 4.51750995 -14 3 C-9.18448679 0.42026078 -5.47161276 -0.12435484 0 0 Z " fill="#AC787D" transform="translate(84,186)"/>
<path d="M0 0 C0.99 0.33 1.98 0.66 3 1 C1.55922954 4.36179774 -0.24750021 6.59156268 -3 9 C-3.66 9 -4.32 9 -5 9 C-4.42647107 5.12867972 -2.51295648 2.91827204 0 0 Z " fill="#B45A5C" transform="translate(91,66)"/>
<path d="M0 0 C0.33 0 0.66 0 1 0 C1.05429959 1.74965358 1.09292823 3.49979787 1.125 5.25 C1.14820313 6.22453125 1.17140625 7.1990625 1.1953125 8.203125 C0.99862781 11.0196498 0.44568916 12.60949036 -1 15 C-1.66 15 -2.32 15 -3 15 C-2.01 10.05 -1.02 5.1 0 0 Z " fill="#9F6B6F" transform="translate(127,135)"/>
<path d="M0 0 C0.66 0 1.32 0 2 0 C2.36923077 6.4 2.36923077 6.4 0.5 9.4375 C0.005 9.953125 -0.49 10.46875 -1 11 C-2.23076923 4.6 -2.23076923 4.6 -1.0625 1.5625 C-0.711875 1.046875 -0.36125 0.53125 0 0 Z " fill="#BC4648" transform="translate(107,38)"/>
<path d="M0 0 C-5.36439644 2.68219822 -9.01006953 3.3152595 -15 3 C-10.44719878 0.34419929 -5.08408244 -1.69469415 0 0 Z " fill="#AC7D81" transform="translate(38,114)"/>
<path d="M0 0 C1.53266582 3.06533164 1.10276471 6.26754272 1.0625 9.625 C1.05798828 10.33140625 1.05347656 11.0378125 1.04882812 11.765625 C1.03703875 13.51045275 1.01910324 15.255237 1 17 C0.67 17 0.34 17 0 17 C-0.33 14.36 -0.66 11.72 -1 9 C-1.33 9 -1.66 9 -2 9 C-2.25 3.375 -2.25 3.375 0 0 Z " fill="#A8565A" transform="translate(112,11)"/>
<path d="M0 0 C2 4 2 4 3 7 C2.34 7 1.68 7 1 7 C0.67 7.66 0.34 8.32 0 9 C-0.99 9.33 -1.98 9.66 -3 10 C-2.01 6.7 -1.02 3.4 0 0 Z " fill="#B25A67" transform="translate(47,161)"/>
<path d="M0 0 C3.3 0.33 6.6 0.66 10 1 C6.38863788 2.80568106 5.455469 3.24851563 1.75 3.125 C-0.10625 3.063125 -0.10625 3.063125 -2 3 C-1.34 2.01 -0.68 1.02 0 0 Z " fill="#AF7588" transform="translate(38,79)"/>
<path d="M0 0 C0.66 0.33 1.32 0.66 2 1 C1.67 3.31 1.34 5.62 1 8 C-0.65 8.66 -2.3 9.32 -4 10 C-2.66666667 6.66666667 -1.33333333 3.33333333 0 0 Z " fill="#C34041" transform="translate(81,50)"/>
<path d="M0 0 C1.98 0 3.96 0 6 0 C6.33 1.65 6.66 3.3 7 5 C6.443125 4.46375 5.88625 3.9275 5.3125 3.375 C4.549375 2.92125 3.78625 2.4675 3 2 C0.26601865 2.70957237 0.26601865 2.70957237 -2 4 C-1.34 2.68 -0.68 1.36 0 0 Z " fill="#A27476" transform="translate(104,9)"/>
<path d="M0 0 C1.65 0.33 3.3 0.66 5 1 C4.67 1.66 4.34 2.32 4 3 C3.34 3 2.68 3 2 3 C2 3.66 2 4.32 2 5 C-0.31 4.67 -2.62 4.34 -5 4 C-4.360625 3.71125 -3.72125 3.4225 -3.0625 3.125 C-0.84793921 2.17176549 -0.84793921 2.17176549 0 0 Z " fill="#BF4D50" transform="translate(49,76)"/>
<path d="M0 0 C0.33 0.66 0.66 1.32 1 2 C1.66 2 2.32 2 3 2 C3.33 1.34 3.66 0.68 4 0 C3.45276317 3.37462715 2.9451 5.08235 1 8 C1 7.34 1 6.68 1 6 C0.34 6 -0.32 6 -1 6 C-0.67 4.02 -0.34 2.04 0 0 Z M1 3 C2 5 2 5 2 5 Z " fill="#B34B4D" transform="translate(60,124)"/>
<path d="M0 0 C0.66 0.33 1.32 0.66 2 1 C-1.75 6.875 -1.75 6.875 -4 8 C-4.33 6.35 -4.66 4.7 -5 3 C-4.360625 2.87625 -3.72125 2.7525 -3.0625 2.625 C-2.0415625 2.315625 -2.0415625 2.315625 -1 2 C-0.67 1.34 -0.34 0.68 0 0 Z " fill="#B06E7D" transform="translate(112,108)"/>
<path d="M0 0 C0.66 0 1.32 0 2 0 C1.34 3.3 0.68 6.6 0 10 C-2 6 -2 6 -1.125 2.75 C-0.75375 1.8425 -0.3825 0.935 0 0 Z " fill="#A06E71" transform="translate(45,143)"/>
<path d="M0 0 C0.33 0.66 0.66 1.32 1 2 C2.65 2 4.3 2 6 2 C6 2.66 6 3.32 6 4 C3.36 4 0.72 4 -2 4 C-1.34 2.68 -0.68 1.36 0 0 Z " fill="#BC8A8E" transform="translate(64,143)"/>
<path d="M0 0 C0 3 0 3 -2.375 5.6875 C-5 8 -5 8 -7 8 C-5.61918777 3.8575633 -3.40174442 2.67796901 0 0 Z " fill="#AC777B" transform="translate(76,64)"/>
<path d="M0 0 C0.33 0 0.66 0 1 0 C1 4.95 1 9.9 1 15 C-1.09566561 10.80866878 -1.15337517 9.68835147 -0.625 5.25 C-0.51414062 4.26515625 -0.40328125 3.2803125 -0.2890625 2.265625 C-0.19367187 1.51796875 -0.09828125 0.7703125 0 0 Z " fill="#C34747" transform="translate(15,79)"/>
<path d="M0 0 C4.29 0 8.58 0 13 0 C13 0.33 13 0.66 13 1 C8.71 1 4.42 1 0 1 C0 0.67 0 0.34 0 0 Z " fill="#9E7F92" transform="translate(60,152)"/>
<path d="M0 0 C0.33 0 0.66 0 1 0 C1 3.96 1 7.92 1 12 C0.67 12 0.34 12 0 12 C0 8.04 0 4.08 0 0 Z " fill="#C93434" transform="translate(114,16)"/>
<path d="M0 0 C0.33 0 0.66 0 1 0 C1 3.3 1 6.6 1 10 C0.67 10 0.34 10 0 10 C-1.125 3.375 -1.125 3.375 0 0 Z " fill="#B74D4D" transform="translate(17,108)"/>
<path d="M0 0 C0.99 0.33 1.98 0.66 3 1 C2.01 1.66 1.02 2.32 0 3 C-0.99 2.67 -1.98 2.34 -3 2 C-2.01 1.34 -1.02 0.68 0 0 Z " fill="#B64861" transform="translate(75,139)"/>
<path d="M0 0 C0.66 0.33 1.32 0.66 2 1 C0.02 1.99 -1.96 2.98 -4 4 C-4 3.34 -4 2.68 -4 2 C-2.125 0.9375 -2.125 0.9375 0 0 Z " fill="#A05E5E" transform="translate(82,136)"/>
<path d="M0 0 C2.97 0 5.94 0 9 0 C9 0.33 9 0.66 9 1 C6.03 1 3.06 1 0 1 C0 0.67 0 0.34 0 0 Z " fill="#F50909" transform="translate(39,77)"/>
<path d="M0 0 C2.64 0 5.28 0 8 0 C8 0.33 8 0.66 8 1 C5.36 1 2.72 1 0 1 C0 0.67 0 0.34 0 0 Z " fill="#FF0000" transform="translate(30,78)"/>
<path d="M0 0 C2.31 0 4.62 0 7 0 C7 0.33 7 0.66 7 1 C4.69 1 2.38 1 0 1 C0 0.67 0 0.34 0 0 Z " fill="#DA24B6" transform="translate(69,199)"/>
<path d="M0 0 C1.98 0 3.96 0 6 0 C6 0.33 6 0.66 6 1 C4.02 1 2.04 1 0 1 C0 0.67 0 0.34 0 0 Z " fill="#D4547F" transform="translate(76,198)"/>
<path d="M0 0 C1.98 0 3.96 0 6 0 C6 0.33 6 0.66 6 1 C4.02 1 2.04 1 0 1 C0 0.67 0 0.34 0 0 Z " fill="#A25B94" transform="translate(20,119)"/>
<path d="M0 0 C1.65 0 3.3 0 5 0 C5 0.33 5 0.66 5 1 C3.35 1 1.7 1 0 1 C0 0.67 0 0.34 0 0 Z " fill="#C33B90" transform="translate(26,118)"/>
<path d="M0 0 C0.66 0.33 1.32 0.66 2 1 C0.68 1.33 -0.64 1.66 -2 2 C-1.34 1.34 -0.68 0.68 0 0 Z " fill="#BA43A9" transform="translate(49,111)"/>
<path d="M0 0 C4 1 4 1 4 1 Z " fill="#7F7F7F" transform="translate(82,197)"/>
<path d="M0 0 C4 1 4 1 4 1 Z " fill="#DF1F5F" transform="translate(90,195)"/>
<path d="M0 0 C4 1 4 1 4 1 Z " fill="#DF1F1F" transform="translate(74,185)"/>
<path d="M0 0 C0 3 0 3 0 3 Z " fill="#C94A8A" transform="translate(31,177)"/>
<path d="M0 0 C1 4 1 4 1 4 Z " fill="#CF3F3F" transform="translate(36,162)"/>
<path d="M0 0 C4 1 4 1 4 1 Z " fill="#A9A9A9" transform="translate(73,151)"/>
<path d="M0 0 C0.99 0.33 1.98 0.66 3 1 C2.01 1 1.02 1 0 1 C0 0.67 0 0.34 0 0 Z " fill="#C974C9" transform="translate(77,150)"/>
<path d="M0 0 C0.66 0 1.32 0 2 0 C1.67 0.99 1.34 1.98 1 3 C0.67 2.01 0.34 1.02 0 0 Z " fill="#C93535" transform="translate(41,146)"/>
<path d="M0 0 C1 4 1 4 1 4 Z " fill="#A95454" transform="translate(123,144)"/>
<path d="M0 0 C0 3 0 3 0 3 Z " fill="#CF3F3F" transform="translate(45,138)"/>
<path d="M0 0 C0.66 0.33 1.32 0.66 2 1 C1.01 1 0.02 1 -1 1 C-0.67 0.67 -0.34 0.34 0 0 Z " fill="#E994E9" transform="translate(62,137)"/>
<path d="M0 0 C4 1 4 1 4 1 Z " fill="#897474" transform="translate(113,130)"/>
<path d="M0 0 C1.485 0.99 1.485 0.99 3 2 C2.01 2 1.02 2 0 2 C0 1.34 0 0.68 0 0 Z " fill="#DF1F1F" transform="translate(88,123)"/>
<path d="M0 0 C4 1 4 1 4 1 Z " fill="#BF3F3F" transform="translate(97,121)"/>
<path d="M0 0 C0.66 0.33 1.32 0.66 2 1 C1.01 1 0.02 1 -1 1 C-0.67 0.67 -0.34 0.34 0 0 Z " fill="#E91515" transform="translate(130,116)"/>
<path d="M0 0 C4 1 4 1 4 1 Z " fill="#C93535" transform="translate(31,117)"/>
<path d="M0 0 C4 1 4 1 4 1 Z " fill="#BF3F3F" transform="translate(140,99)"/>
<path d="M0 0 C4 1 4 1 4 1 Z " fill="#DF1F1F" transform="translate(127,96)"/>
<path d="M0 0 C4 1 4 1 4 1 Z " fill="#BF3F3F" transform="translate(122,95)"/>
<path d="" fill="#E21C1C" transform="translate(0,0)"/>
<path d="M0 0 C3 1 3 1 3 1 Z " fill="#B846B8" transform="translate(94,194)"/>
<path d="M0 0 C3 1 3 1 3 1 Z " fill="#B89BB8" transform="translate(97,193)"/>
<path d="M0 0 C0.66 0 1.32 0 2 0 C1.67 0.66 1.34 1.32 1 2 C0.67 1.34 0.34 0.68 0 0 Z " fill="#E271C6" transform="translate(100,192)"/>
<path d="M0 0 C3 1 3 1 3 1 Z " fill="#FF0000" transform="translate(70,186)"/>
<path d="M0 0 C3 1 3 1 3 1 Z " fill="#A95454" transform="translate(78,184)"/>
<path d="" fill="#BF5454" transform="translate(0,0)"/>
<path d="" fill="#E97FD4" transform="translate(0,0)"/>
<path d="" fill="#C63855" transform="translate(0,0)"/>
<path d="M0 0 C0.66 0.66 1.32 1.32 2 2 C1.34 2 0.68 2 0 2 C0 1.34 0 0.68 0 0 Z " fill="#D42A7F" transform="translate(103,171)"/>
<path d="" fill="#B84646" transform="translate(0,0)"/>
<path d="" fill="#947F7F" transform="translate(0,0)"/>
<path d="" fill="#A95454" transform="translate(0,0)"/>
<path d="" fill="#B84663" transform="translate(0,0)"/>
<path d="" fill="#C63838" transform="translate(0,0)"/>
<path d="" fill="#E21C1C" transform="translate(0,0)"/>
<path d="M0 0 C3 1 3 1 3 1 Z " fill="#A9A9A9" transform="translate(80,149)"/>
<path d="M0 0 C3 1 3 1 3 1 Z " fill="#A9A9A9" transform="translate(83,148)"/>
<path d="" fill="#B84646" transform="translate(0,0)"/>
<path d="" fill="#B84646" transform="translate(0,0)"/>
<path d="M0 0 C3 1 3 1 3 1 Z " fill="#A95454" transform="translate(118,131)"/>
<path d="" fill="#B84646" transform="translate(0,0)"/>
<path d="M0 0 C3 1 3 1 3 1 Z " fill="#D47F7F" transform="translate(76,129)"/>
<path d="" fill="#BF5454" transform="translate(0,0)"/>
<path d="M0 0 C3 1 3 1 3 1 Z " fill="#A95454" transform="translate(94,122)"/>
<path d="" fill="#B84646" transform="translate(0,0)"/>
<path d="M0 0 C0.33 0.66 0.66 1.32 1 2 C0.34 1.67 -0.32 1.34 -1 1 C-0.67 0.67 -0.34 0.34 0 0 Z " fill="#E21C1C" transform="translate(128,118)"/>
<path d="" fill="#E21C1C" transform="translate(0,0)"/>
<path d="" fill="#A95454" transform="translate(0,0)"/>
<path d="" fill="#E21C1C" transform="translate(0,0)"/>
<path d="M0 0 C3 1 3 1 3 1 Z " fill="#D42A2A" transform="translate(44,113)"/>
<path d="" fill="#E21C1C" transform="translate(0,0)"/>
<path d="M0 0 C0.66 0 1.32 0 2 0 C1.67 0.66 1.34 1.32 1 2 C0.67 1.34 0.34 0.68 0 0 Z " fill="#A954A9" transform="translate(51,110)"/>
<path d="" fill="#B84646" transform="translate(0,0)"/>
<path d="M0 0 C0.66 0 1.32 0 2 0 C1.67 0.66 1.34 1.32 1 2 C0.67 1.34 0.34 0.68 0 0 Z " fill="#A27171" transform="translate(55,108)"/>
<path d="M0 0 C3 1 3 1 3 1 Z " fill="#D42A2A" transform="translate(54,75)"/>
<path d="" fill="#9B6363" transform="translate(0,0)"/>
<path d="" fill="#A95454" transform="translate(0,0)"/>
<path d="" fill="#AAAAAA" transform="translate(0,0)"/>
<path d="M0 0 C2 1 2 1 2 1 Z " fill="#7F7F7F" transform="translate(105,190)"/>
<path d="M0 0 C2 1 2 1 2 1 Z " fill="#D42A2A" transform="translate(115,185)"/>
<path d="" fill="#CC334C" transform="translate(0,0)"/>
<path d="M0 0 C2 1 2 1 2 1 Z " fill="#D42A2A" transform="translate(118,183)"/>
<path d="M0 0 C2 1 2 1 2 1 Z " fill="#BF3F3F" transform="translate(87,181)"/>
<path d="M0 0 C2 1 2 1 2 1 Z " fill="#D42A2A" transform="translate(122,180)"/>
<path d="M0 0 C2 1 2 1 2 1 Z " fill="#7F7F7F" transform="translate(90,180)"/>
<path d="M0 0 C2 1 2 1 2 1 Z " fill="#7F7F7F" transform="translate(92,179)"/>
<path d="M0 0 C2 1 2 1 2 1 Z " fill="#7F7F7F" transform="translate(94,178)"/>
<path d="M0 0 C2 1 2 1 2 1 Z " fill="#BF3F3F" transform="translate(97,176)"/>
<path d="M0 0 C2 1 2 1 2 1 Z " fill="#FF007F" transform="translate(99,175)"/>
<path d="" fill="#7F7F7F" transform="translate(0,0)"/>
<path d="" fill="#946A6A" transform="translate(0,0)"/>
<path d="M0 0 C2 1 2 1 2 1 Z " fill="#BF3FBF" transform="translate(108,168)"/>
<path d="" fill="#946A6A" transform="translate(0,0)"/>
<path d="" fill="#D42A2A" transform="translate(0,0)"/>
<path d="" fill="#AA5555" transform="translate(0,0)"/>
<path d="" fill="#946A6A" transform="translate(0,0)"/>
<path d="" fill="#7F7F7F" transform="translate(0,0)"/>
<path d="M0 0 C2 1 2 1 2 1 Z " fill="#BF3FBF" transform="translate(58,151)"/>
<path d="M0 0 C2 1 2 1 2 1 Z " fill="#7F7F7F" transform="translate(89,145)"/>
<path d="M0 0 C2 1 2 1 2 1 Z " fill="#946A6A" transform="translate(91,144)"/>
<path d="M0 0 C2 1 2 1 2 1 Z " fill="#9F7F7F" transform="translate(93,143)"/>
<path d="M0 0 C2 1 2 1 2 1 Z " fill="#DF3F3F" transform="translate(95,142)"/>
<path d="" fill="#946A6A" transform="translate(0,0)"/>
<path d="M0 0 C2 1 2 1 2 1 Z " fill="#D42A2A" transform="translate(97,141)"/>
<path d="M0 0 C2 1 2 1 2 1 Z " fill="#D42A2A" transform="translate(100,139)"/>
<path d="M0 0 C2 1 2 1 2 1 Z " fill="#D42A2A" transform="translate(103,137)"/>
<path d="M0 0 C2 1 2 1 2 1 Z " fill="#D42A2A" transform="translate(106,135)"/>
<path d="M0 0 C2 1 2 1 2 1 Z " fill="#BFBFBF" transform="translate(65,135)"/>
<path d="M0 0 C2 1 2 1 2 1 Z " fill="#BFBFBF" transform="translate(67,134)"/>
<path d="M0 0 C2 1 2 1 2 1 Z " fill="#D42A2A" transform="translate(110,132)"/>
<path d="M0 0 C2 1 2 1 2 1 Z " fill="#BF3FBF" transform="translate(70,132)"/>
<path d="M0 0 C2 1 2 1 2 1 Z " fill="#FF007F" transform="translate(74,130)"/>
<path d="" fill="#946A6A" transform="translate(0,0)"/>
<path d="M0 0 C2 1 2 1 2 1 Z " fill="#FF0000" transform="translate(86,125)"/>
<path d="M0 0 C2 1 2 1 2 1 Z " fill="#FF0000" transform="translate(92,123)"/>
<path d="M0 0 C2 1 2 1 2 1 Z " fill="#946A6A" transform="translate(125,120)"/>
<path d="M0 0 C2 1 2 1 2 1 Z " fill="#FF0000" transform="translate(86,120)"/>
<path d="" fill="#946A6A" transform="translate(0,0)"/>
<path d="M0 0 C2 1 2 1 2 1 Z " fill="#FF0000" transform="translate(140,117)"/>
<path d="M0 0 C2 1 2 1 2 1 Z " fill="#FF0000" transform="translate(135,116)"/>
<path d="M0 0 C2 1 2 1 2 1 Z " fill="#7F7F7F" transform="translate(39,115)"/>
<path d="M0 0 C2 1 2 1 2 1 Z " fill="#946A6A" transform="translate(42,114)"/>
<path d="M0 0 C2 1 2 1 2 1 Z " fill="#D42A2A" transform="translate(135,112)"/>
<path d="" fill="#7F7F7F" transform="translate(0,0)"/>
<path d="" fill="#946A6A" transform="translate(0,0)"/>
<path d="M0 0 C2 1 2 1 2 1 Z " fill="#7F7F7F" transform="translate(53,109)"/>
<path d="" fill="#AA5555" transform="translate(0,0)"/>
<path d="" fill="#FF0000" transform="translate(0,0)"/>
<path d="" fill="#946A6A" transform="translate(0,0)"/>
<path d="M0 0 C2 1 2 1 2 1 Z " fill="#FF0000" transform="translate(136,98)"/>
<path d="M0 0 C2 1 2 1 2 1 Z " fill="#FF0000" transform="translate(119,94)"/>
<path d="M0 0 C2 1 2 1 2 1 Z " fill="#FF0000" transform="translate(57,74)"/>
<path d="M0 0 C2 1 2 1 2 1 Z " fill="#BF3F3F" transform="translate(59,73)"/>
<path d="M0 0 C2 1 2 1 2 1 Z " fill="#FF0000" transform="translate(62,72)"/>
<path d="M0 0 C2 1 2 1 2 1 Z " fill="#FF0000" transform="translate(64,71)"/>
<path d="M0 0 C2 1 2 1 2 1 Z " fill="#BF3F3F" transform="translate(67,69)"/>
<path d="M0 0 C2 1 2 1 2 1 Z " fill="#D42A2A" transform="translate(70,67)"/>
<path d="" fill="#946A6A" transform="translate(0,0)"/>
<path d="" fill="#946A6A" transform="translate(0,0)"/>
<path d="" fill="#946A6A" transform="translate(0,0)"/>
<path d="" fill="#946A6A" transform="translate(0,0)"/>
<path d="" fill="#946A6A" transform="translate(0,0)"/>
<path d="" fill="#946A6A" transform="translate(0,0)"/>
<path d="" fill="#946A6A" transform="translate(0,0)"/>
<path d="" fill="#946A6A" transform="translate(0,0)"/>
<path d="" fill="#FF0000" transform="translate(0,0)"/>
<path d="" fill="#7F7F7F" transform="translate(0,0)"/>
<path d="M0 0 C2 1 2 1 2 1 Z " fill="#BF3F3F" transform="translate(108,7)"/>
<path d="M0 0 C2 1 2 1 2 1 Z " fill="#BF3F3F" transform="translate(104,7)"/>
<path d="M0 0 C2 1 2 1 2 1 Z " fill="#FF0000" transform="translate(106,6)"/>
<path d="" fill="#FF0000" transform="translate(0,0)"/>
<path d="" fill="#FFFFFF" transform="translate(0,0)"/>
<path d="" fill="#FF0000" transform="translate(0,0)"/>
<path d="" fill="#FF0000" transform="translate(0,0)"/>
<path d="" fill="#FF0000" transform="translate(0,0)"/>
<path d="" fill="#FFFFFF" transform="translate(0,0)"/>
<path d="" fill="#AA5555" transform="translate(0,0)"/>
<path d="" fill="#FF0000" transform="translate(0,0)"/>
<path d="" fill="#FF0000" transform="translate(0,0)"/>
<path d="" fill="#FF0000" transform="translate(0,0)"/>
<path d="" fill="#AA5555" transform="translate(0,0)"/>
<path d="" fill="#FF0000" transform="translate(0,0)"/>
<path d="" fill="#7F7F7F" transform="translate(0,0)"/>
<path d="" fill="#FFFFFF" transform="translate(0,0)"/>
<path d="" fill="#FF0000" transform="translate(0,0)"/>
<path d="" fill="#7F7F7F" transform="translate(0,0)"/>
<path d="" fill="#FF0000" transform="translate(0,0)"/>
<path d="" fill="#AA5555" transform="translate(0,0)"/>
<path d="" fill="#996666" transform="translate(0,0)"/>
<path d="" fill="#7F7F7F" transform="translate(0,0)"/>
<path d="" fill="#FF0000" transform="translate(0,0)"/>
<path d="" fill="#FF0000" transform="translate(0,0)"/>
<path d="" fill="#996666" transform="translate(0,0)"/>
<path d="" fill="#BF7F7F" transform="translate(0,0)"/>
<path d="" fill="#FF0000" transform="translate(0,0)"/>
<path d="" fill="#BF7F7F" transform="translate(0,0)"/>
<path d="" fill="#7F7F7F" transform="translate(0,0)"/>
<path d="" fill="#FF0000" transform="translate(0,0)"/>
<path d="" fill="#AA5555" transform="translate(0,0)"/>
<path d="" fill="#FF00FF" transform="translate(0,0)"/>
<path d="" fill="#AA5555" transform="translate(0,0)"/>
<path d="" fill="#FF0000" transform="translate(0,0)"/>
<path d="" fill="#7F7F7F" transform="translate(0,0)"/>
<path d="" fill="#7F7F7F" transform="translate(0,0)"/>
<path d="" fill="#FF0000" transform="translate(0,0)"/>
<path d="" fill="#FF00FF" transform="translate(0,0)"/>
<path d="" fill="#BF7F7F" transform="translate(0,0)"/>
<path d="" fill="#AA5555" transform="translate(0,0)"/>
<path d="" fill="#FF0000" transform="translate(0,0)"/>
<path d="" fill="#7F7F7F" transform="translate(0,0)"/>
<path d="" fill="#FF0000" transform="translate(0,0)"/>
<path d="" fill="#AA5555" transform="translate(0,0)"/>
<path d="" fill="#FF0000" transform="translate(0,0)"/>
<path d="" fill="#AA5555" transform="translate(0,0)"/>
<path d="" fill="#FF0000" transform="translate(0,0)"/>
<path d="" fill="#FF0000" transform="translate(0,0)"/>
<path d="" fill="#FF0000" transform="translate(0,0)"/>
<path d="" fill="#FF0000" transform="translate(0,0)"/>
<path d="" fill="#FF0000" transform="translate(0,0)"/>
<path d="" fill="#FF0000" transform="translate(0,0)"/>
<path d="" fill="#FF0000" transform="translate(0,0)"/>
<path d="" fill="#FF0000" transform="translate(0,0)"/>
<path d="" fill="#7F7F7F" transform="translate(0,0)"/>
<path d="" fill="#7F7F7F" transform="translate(0,0)"/>
<path d="" fill="#FF0000" transform="translate(0,0)"/>
<path d="" fill="#7F7F7F" transform="translate(0,0)"/>
<path d="" fill="#7F7F7F" transform="translate(0,0)"/>
<path d="" fill="#FF0000" transform="translate(0,0)"/>
<path d="" fill="#7F7F7F" transform="translate(0,0)"/>
<path d="" fill="#7F7F7F" transform="translate(0,0)"/>
<path d="" fill="#FF0000" transform="translate(0,0)"/>
<path d="" fill="#7F7F7F" transform="translate(0,0)"/>
<path d="" fill="#AA5555" transform="translate(0,0)"/>
<path d="" fill="#7F7F7F" transform="translate(0,0)"/>
<path d="" fill="#AA5555" transform="translate(0,0)"/>
<path d="" fill="#7F7F7F" transform="translate(0,0)"/>
<path d="" fill="#FF0000" transform="translate(0,0)"/>
<path d="" fill="#FF0000" transform="translate(0,0)"/>
<path d="" fill="#FF0000" transform="translate(0,0)"/>
<path d="" fill="#FF0000" transform="translate(0,0)"/>
<path d="" fill="#AA5555" transform="translate(0,0)"/>
<path d="" fill="#FF0000" transform="translate(0,0)"/>
<path d="" fill="#7F7F7F" transform="translate(0,0)"/>
<path d="" fill="#FF0000" transform="translate(0,0)"/>
<path d="" fill="#7F7F7F" transform="translate(0,0)"/>
<path d="" fill="#FF0000" transform="translate(0,0)"/>
<path d="" fill="#7F7F7F" transform="translate(0,0)"/>
<path d="" fill="#FF0000" transform="translate(0,0)"/>
<path d="" fill="#FF0000" transform="translate(0,0)"/>
<path d="" fill="#FF0000" transform="translate(0,0)"/>
<path d="" fill="#AA5555" transform="translate(0,0)"/>
<path d="" fill="#7F7F7F" transform="translate(0,0)"/>
<path d="" fill="#FF0000" transform="translate(0,0)"/>
<path d="" fill="#FF0000" transform="translate(0,0)"/>
<path d="" fill="#7F7F7F" transform="translate(0,0)"/>
<path d="" fill="#7F7F7F" transform="translate(0,0)"/>
<path d="" fill="#FF0000" transform="translate(0,0)"/>
<path d="" fill="#AA5555" transform="translate(0,0)"/>
<path d="" fill="#AA5555" transform="translate(0,0)"/>
<path d="" fill="#996666" transform="translate(0,0)"/>
<path d="" fill="#FFFFFF" transform="translate(0,0)"/>
<path d="" fill="#7F7F7F" transform="translate(0,0)"/>
<path d="" fill="#FF0000" transform="translate(0,0)"/>
<path d="" fill="#FF0000" transform="translate(0,0)"/>
<path d="" fill="#FF00FF" transform="translate(0,0)"/>
<path d="" fill="#AA5555" transform="translate(0,0)"/>
<path d="" fill="#BF7F7F" transform="translate(0,0)"/>
<path d="" fill="#BF7F7F" transform="translate(0,0)"/>
<path d="" fill="#FF0000" transform="translate(0,0)"/>
<path d="" fill="#FF0000" transform="translate(0,0)"/>
<path d="" fill="#FF0000" transform="translate(0,0)"/>
<path d="" fill="#FF0000" transform="translate(0,0)"/>
<path d="" fill="#7F7F7F" transform="translate(0,0)"/>
<path d="" fill="#FF0000" transform="translate(0,0)"/>
<path d="" fill="#FF0000" transform="translate(0,0)"/>
<path d="" fill="#FF0000" transform="translate(0,0)"/>
<path d="" fill="#FF0000" transform="translate(0,0)"/>
<path d="" fill="#FF0000" transform="translate(0,0)"/>
<path d="" fill="#FF0000" transform="translate(0,0)"/>
<path d="" fill="#FF0000" transform="translate(0,0)"/>
<path d="" fill="#FF0000" transform="translate(0,0)"/>
<path d="" fill="#FF0000" transform="translate(0,0)"/>
<path d="" fill="#FF0000" transform="translate(0,0)"/>
<path d="" fill="#FF0000" transform="translate(0,0)"/>
<path d="" fill="#FF0000" transform="translate(0,0)"/>
<path d="" fill="#FF00FF" transform="translate(0,0)"/>
<path d="" fill="#FF0000" transform="translate(0,0)"/>
<path d="" fill="#BF7F7F" transform="translate(0,0)"/>
<path d="" fill="#AA5555" transform="translate(0,0)"/>
<path d="" fill="#FF0000" transform="translate(0,0)"/>
<path d="" fill="#BF7F7F" transform="translate(0,0)"/>
<path d="" fill="#FF0000" transform="translate(0,0)"/>
<path d="" fill="#FF0000" transform="translate(0,0)"/>
<path d="" fill="#FF0000" transform="translate(0,0)"/>
<path d="" fill="#FF0000" transform="translate(0,0)"/>
<path d="" fill="#FF0000" transform="translate(0,0)"/>
<path d="" fill="#FF0000" transform="translate(0,0)"/>
<path d="" fill="#FF0000" transform="translate(0,0)"/>
<path d="" fill="#FF0000" transform="translate(0,0)"/>
<path d="" fill="#BF7F7F" transform="translate(0,0)"/>
<path d="" fill="#AA5555" transform="translate(0,0)"/>
<path d="" fill="#FF0000" transform="translate(0,0)"/>
<path d="" fill="#FF0000" transform="translate(0,0)"/>
<path d="" fill="#FF0000" transform="translate(0,0)"/>
<path d="" fill="#FF0000" transform="translate(0,0)"/>
<path d="" fill="#FF0000" transform="translate(0,0)"/>
<path d="" fill="#FF0000" transform="translate(0,0)"/>
<path d="" fill="#FF0000" transform="translate(0,0)"/>
<path d="" fill="#FF0000" transform="translate(0,0)"/>
<path d="" fill="#FF0000" transform="translate(0,0)"/>
</svg>
